<svg width="13" height="18" viewBox="0 0 13 18" fill="none" xmlns="http://www.w3.org/2000/svg">
<path d="M8.09055 0.185753C7.89664 0.406232 7.92586 0.764843 8.14634 0.958758L10.4521 3.00417L1.23711 3.00417C0.934285 3.00417 0.684586 3.25386 0.684586 3.55669C0.684586 3.85952 0.934285 4.10922 1.23711 4.10922H10.4521L8.14634 6.15462C7.92586 6.3751 7.89664 6.70715 8.09055 6.92763C8.31103 7.14811 8.64308 7.17733 8.86356 6.98341L12.2345 3.97109C12.5134 3.74529 12.4709 3.34684 12.2345 3.16886L8.86356 0.129969C8.64573 -0.0639462 8.28447 -0.0373826 8.09055 0.185753Z" fill="white"/>
<path d="M5.02209 16.9268C5.21601 16.7063 5.18679 16.3477 4.96631 16.1538L2.66057 14.1084H11.8755C12.1784 14.1084 12.4281 13.8587 12.4281 13.5559C12.4281 13.253 12.1784 13.0033 11.8755 13.0033H2.66057L4.96631 10.9579C5.18679 10.7374 5.21601 10.4054 5.02209 10.1849C4.80161 9.96444 4.46956 9.93522 4.24909 10.1291L0.878149 13.1415C0.59923 13.3673 0.641731 13.7657 0.878149 13.9437L4.24909 16.9826C4.46691 17.1765 4.82818 17.1499 5.02209 16.9268Z" fill="white"/>
</svg>
