<svg width="15" height="14" viewBox="0 0 15 14" fill="none" xmlns="http://www.w3.org/2000/svg">
<path d="M9.33331 0.5H14C14.2761 0.5 14.5 0.723857 14.5 1V3.66667C14.5 3.94281 14.2761 4.16667 14 4.16667H9.33331C9.05717 4.16667 8.83331 3.94281 8.83331 3.66667V1C8.83331 0.723858 9.05717 0.5 9.33331 0.5Z" stroke="white"/>
<path d="M1 0.5H5.66668C5.94282 0.5 6.16668 0.723858 6.16668 1V6.77776C6.16668 7.0539 5.94282 7.27776 5.66668 7.27776H1C0.723858 7.27776 0.5 7.0539 0.5 6.77776V1C0.5 0.723858 0.723858 0.5 1 0.5Z" stroke="white"/>
<path d="M1 9.83325H5.66668C5.94282 9.83325 6.16668 10.0571 6.16668 10.3333V12.9999C6.16668 13.2761 5.94282 13.4999 5.66668 13.4999H1C0.723858 13.4999 0.5 13.2761 0.5 12.9999V10.3333C0.5 10.0571 0.723858 9.83325 1 9.83325Z" stroke="white"/>
<path d="M9.33331 6.72217H14C14.2761 6.72217 14.5 6.94603 14.5 7.22217V12.9999C14.5 13.2761 14.2761 13.4999 14 13.4999H9.33331C9.05717 13.4999 8.83331 13.2761 8.83331 12.9999V7.22217C8.83331 6.94603 9.05717 6.72217 9.33331 6.72217Z" stroke="white"/>
</svg>
