<svg width="14" height="14" viewBox="0 0 14 14" fill="none" xmlns="http://www.w3.org/2000/svg">
<path d="M7 0C3.1402 0 0 3.14024 0 7.00004C0 10.8598 3.1402 14 7 14C10.8598 14 14 10.8598 14 7.00004C14 3.14024 10.8598 0 7 0ZM7 13.0667C3.84194 13.0667 0.933333 10.158 0.933333 7C0.933333 3.84198 3.84194 0.933333 7 0.933333C10.1581 0.933333 13.0667 3.84198 13.0667 7C13.0667 10.158 10.158 13.0667 7 13.0667Z" fill="white"/>
<path d="M6.90891 2.5C6.40773 2.5 6 2.908 6 3.4095C6 3.91055 6.40773 4.31818 6.90891 4.31818C7.41009 4.31818 7.81782 3.91055 7.81782 3.4095C7.81782 2.908 7.41009 2.5 6.90891 2.5Z" fill="white"/>
<path d="M6.90899 5.68188C6.53245 5.68188 6.22717 5.98716 6.22717 6.3637V10.4546C6.22717 10.8312 6.53245 11.1364 6.90899 11.1364C7.28554 11.1364 7.59081 10.8312 7.59081 10.4546V6.3637C7.59081 5.98716 7.28554 5.68188 6.90899 5.68188Z" fill="white"/>
</svg>
