<svg width="15" height="11" viewBox="0 0 15 11" fill="none" xmlns="http://www.w3.org/2000/svg">
<path d="M14.7012 0H0.298798C0.133799 0 0 0.151698 0 0.338845V9.2669C0 10.2225 0.685546 11 1.52827 11H13.4717C14.3144 11 15 10.2225 15 9.2669V0.338845C15 0.151698 14.8662 0 14.7012 0ZM14.4024 9.26687C14.4024 9.84881 13.9849 10.3222 13.4717 10.3222H1.52827C1.01511 10.3222 0.597626 9.84878 0.597626 9.26687V1.07813L7.3107 7.31031C7.36578 7.36141 7.43287 7.38696 7.49999 7.38696C7.56699 7.38696 7.63399 7.36147 7.68901 7.31054L12.378 3.18977C12.5058 3.07136 12.5248 2.85793 12.4204 2.71298C12.316 2.56802 12.1278 2.5465 12 2.66494L7.50019 6.61039L1.10973 0.677691H14.4024V9.26687Z" fill="#C90000"/>
</svg>
