<svg width="123" height="34" viewBox="0 0 123 34" fill="none" xmlns="http://www.w3.org/2000/svg">
<g clip-path="url(#clip0)">
<path d="M32.2454 34.022C30.8178 34.0385 29.3952 33.8535 28.0211 33.4724C27.006 33.2189 26.0384 32.8081 25.1547 32.2555L25.5984 27.1958C26.0361 27.5215 26.499 27.8131 26.9828 28.0682C27.5216 28.3451 28.0791 28.5856 28.6512 28.7879C29.2295 29.0104 29.8225 29.194 30.4261 29.3374C30.9569 29.4719 31.5021 29.5437 32.0501 29.5512C32.5551 29.5699 33.0589 29.4898 33.5322 29.3156C33.8665 29.1842 34.1602 28.9692 34.3841 28.6919C34.5797 28.4367 34.705 28.1362 34.748 27.8195C34.7947 27.5208 34.8184 27.2189 34.8189 26.9167C34.8547 26.4975 34.7795 26.0764 34.6006 25.6942C34.4218 25.312 34.1454 24.9819 33.7984 24.7358C32.9744 24.2065 32.078 23.7953 31.136 23.5145C30.3906 23.2615 29.6703 22.9838 28.9751 22.6814C28.2948 22.3887 27.6647 21.9944 27.107 21.5124C26.5344 20.9996 26.0804 20.3719 25.7759 19.6718C25.4055 18.7708 25.2317 17.8034 25.2656 16.8322C25.272 15.9625 25.3867 15.0968 25.6073 14.2544C25.8343 13.3625 26.2467 12.5264 26.8186 11.7988C27.448 11.0137 28.2547 10.3835 29.1748 9.95809C30.3416 9.44606 31.6116 9.20145 32.8888 9.24276C33.5887 9.24498 34.2874 9.30039 34.9787 9.40851C35.6886 9.52192 36.3631 9.65713 36.9932 9.81416C37.5798 9.9614 38.1563 10.145 38.7193 10.3637C39.1389 10.5176 39.5312 10.7354 39.8818 11.0093L39.4381 16.0689C39.1207 15.7346 38.7715 15.4308 38.3954 15.1617C37.9348 14.8301 37.4376 14.5507 36.9133 14.3286C36.3479 14.0833 35.7633 13.8834 35.1651 13.731C34.5926 13.5865 34.0034 13.5162 33.4123 13.5217C32.6316 13.521 31.8651 13.7275 31.1937 14.1192C30.8501 14.33 30.5728 14.6304 30.3926 14.9869C30.2124 15.3435 30.1364 15.7422 30.1732 16.1387C30.1496 16.6401 30.2946 17.1352 30.5858 17.5476C30.8695 17.9225 31.2329 18.2321 31.6508 18.4548C32.1318 18.7094 32.6371 18.9168 33.1594 19.0742L34.9343 19.6238C35.6925 19.8666 36.4336 20.158 37.1529 20.4961C37.8282 20.8237 38.4313 21.2787 38.9278 21.8352C39.458 22.4408 39.8702 23.1372 40.1436 23.8896C40.4733 24.8827 40.6235 25.9249 40.5873 26.969C40.5929 27.7588 40.5231 28.5474 40.3788 29.3244C40.2118 30.1627 39.8265 30.9441 39.2606 31.5925C38.5686 32.3529 37.7035 32.9418 36.7358 33.311C35.3007 33.8344 33.7751 34.076 32.2454 34.022Z" fill="#58524E"/>
<path d="M52.0754 34.0215C50.5481 34.0516 49.0371 33.7084 47.6781 33.0227C46.4283 32.3754 45.3413 31.4619 44.4966 30.3489C43.6206 29.1656 42.9711 27.8353 42.5797 26.4233C41.7043 23.3077 41.7043 20.0172 42.5797 16.9016C42.9689 15.4888 43.6186 14.1582 44.4966 12.976C45.3389 11.8608 46.4264 10.9468 47.6781 10.3022C49.0367 9.61502 50.5477 9.27029 52.0754 9.29902C52.8176 9.29117 53.5593 9.33929 54.294 9.44296C54.8542 9.52491 55.4064 9.65332 55.9446 9.8268C56.3944 9.9681 56.8262 10.1598 57.2314 10.3982C57.6041 10.6206 57.968 10.8344 58.3274 11.0655L57.8837 16.1252C57.0917 15.5349 56.227 15.0454 55.3101 14.6684C54.4121 14.3259 53.4556 14.1556 52.4925 14.1668C51.0666 14.1668 49.9337 14.8588 49.0935 16.243C48.2534 17.6271 47.8319 19.4343 47.8289 21.6646C47.8289 23.892 48.2505 25.6978 49.0935 27.082C49.9366 28.4661 51.0696 29.1582 52.4925 29.1582C53.4558 29.1717 54.4127 29.0014 55.3101 28.6566C56.227 28.2795 57.0917 27.79 57.8837 27.1997L58.3274 32.2594C57.5744 32.7589 56.7679 33.1758 55.9224 33.5025C54.6821 33.9008 53.379 34.0766 52.0754 34.0215Z" fill="#58524E"/>
<path d="M77.1013 34.0214H71.2708V32.1371L71.2309 32.1633C70.6579 32.6411 70.0068 33.0201 69.3051 33.2843C68.1432 33.76 66.8986 34.0103 65.6399 34.0214C64.8743 34.0206 64.1178 33.8585 63.4213 33.546C62.695 33.2163 62.05 32.7357 61.5311 32.1371C60.9486 31.4782 60.4971 30.7178 60.1999 29.8952C59.8591 28.9203 59.6939 27.8944 59.7118 26.8637C59.6493 25.368 60.1202 23.8978 61.043 22.707C61.914 21.6439 62.9966 20.7667 64.2245 20.1292C65.4193 19.503 66.6958 19.0407 68.0183 18.7552C69.0721 18.523 70.1437 18.3771 71.222 18.319C71.1599 16.9494 70.8892 15.955 70.4233 15.3356C69.9574 14.7162 69.0699 14.4022 67.7609 14.4022C66.7892 14.394 65.8225 14.5413 64.8989 14.8383C63.8509 15.2008 62.8417 15.664 61.886 16.221L61.5 11.4013C62.8079 10.756 64.1728 10.229 65.5778 9.82667C66.8083 9.47843 68.0823 9.30079 69.3628 9.2989C70.4222 9.28699 71.4749 9.46586 72.4688 9.82667C73.4172 10.1687 74.2616 10.742 74.9226 11.4929C75.6631 12.3678 76.2088 13.3857 76.5245 14.4807C76.9445 15.9147 77.142 17.4028 77.1102 18.8948L77.1013 34.0214ZM71.2708 22.3057C70.7585 22.3636 70.2541 22.4762 69.7666 22.6416C69.1426 22.8375 68.5462 23.1101 67.9917 23.4528C67.4135 23.7955 66.9037 24.2389 66.4875 24.7614C66.0557 25.2819 65.8233 25.9348 65.8307 26.6064C65.7671 27.3741 65.9637 28.1409 66.3898 28.7873C66.7626 29.2496 67.4518 29.4808 68.4576 29.4808C68.8756 29.417 69.2784 29.2796 69.6468 29.0752C70.274 28.7535 70.8269 28.3081 71.2708 27.7666V22.3057Z" fill="#58524E"/>
<path d="M104.617 34.0217H98.7904V32.1374L98.7505 32.1636C98.1776 32.6414 97.5264 33.0204 96.8247 33.2845C95.6614 33.7608 94.4153 34.0111 93.1552 34.0217C92.3894 34.0219 91.6327 33.8597 90.9365 33.5463C90.2088 33.2168 89.5624 32.7361 89.0418 32.1374C88.4607 31.4775 88.0094 30.7173 87.7107 29.8955C87.3714 28.9203 87.2077 27.8945 87.227 26.864C87.1623 25.368 87.6333 23.8971 88.5582 22.7073C89.4292 21.6442 90.5118 20.767 91.7397 20.1294C92.9356 19.5023 94.2137 19.0399 95.5379 18.7555C96.5917 18.5229 97.6633 18.377 98.7416 18.3193C98.6765 16.9497 98.4088 15.9552 97.9385 15.3359C97.4681 14.7121 96.6073 14.4024 95.2761 14.4024C94.3029 14.394 93.3348 14.5413 92.4097 14.8386C91.3631 15.2012 90.3554 15.6644 89.4013 16.2213L89.0108 11.4015C90.319 10.757 91.6838 10.23 93.0886 9.82694C94.3206 9.47869 95.596 9.30105 96.878 9.29917C97.93 9.28991 98.9749 9.46875 99.9619 9.82694C100.91 10.1699 101.754 10.7431 102.416 11.4931C103.155 12.3692 103.7 13.3866 104.017 14.481C104.433 15.9157 104.629 17.4035 104.599 18.8951L104.617 34.0217ZM98.7904 22.306C98.2781 22.3636 97.7736 22.4762 97.2862 22.6418C96.6546 22.8361 96.0507 23.1087 95.4891 23.4531C94.9096 23.7956 94.3984 24.239 93.9805 24.7616C93.5579 25.2856 93.335 25.9382 93.3504 26.6067C93.2868 27.3744 93.4834 28.1412 93.9095 28.7876C94.2822 29.2499 94.97 29.4811 95.9728 29.4811C96.391 29.418 96.7939 29.2805 97.162 29.0754C97.7913 28.7552 98.3459 28.3095 98.7904 27.7669V22.306Z" fill="#58524E"/>
<path d="M85.3323 34.0218H79.564V0H85.3323V34.0218Z" fill="#58524E"/>
<path d="M116.739 34.0219C115.212 34.0519 113.701 33.7087 112.342 33.023C111.088 32.37 109.999 31.4488 109.156 30.3274C108.28 29.1441 107.63 27.8139 107.239 26.4018C106.364 23.2863 106.364 19.9957 107.239 16.8801C107.628 15.4673 108.278 14.1367 109.156 12.9545C109.998 11.8393 111.086 10.9253 112.337 10.2807C113.696 9.59353 115.207 9.24881 116.735 9.27754C117.477 9.26968 118.219 9.3178 118.953 9.42148C119.513 9.50394 120.066 9.63233 120.604 9.80531C121.054 9.94662 121.486 10.1383 121.891 10.3767C122.263 10.5977 122.627 10.8202 122.982 11.0441L122.539 16.1037C121.747 15.5134 120.882 15.0239 119.965 14.6469C119.067 14.3044 118.111 14.1341 117.147 14.1453C115.724 14.1453 114.591 14.8373 113.748 16.2215C112.905 17.6056 112.484 19.4128 112.484 21.6432C112.484 23.8706 112.905 25.6763 113.748 27.0605C114.591 28.4446 115.724 29.1367 117.147 29.1367C118.111 29.1503 119.068 28.9799 119.965 28.6351C120.882 28.258 121.747 27.7685 122.539 27.1782L122.982 32.2379C122.231 32.7382 121.426 33.1551 120.582 33.481C119.344 33.8862 118.043 34.0694 116.739 34.0219Z" fill="#58524E"/>
<path d="M18.8671 21.6386L0 9.27295V15.4536L9.43355 21.6386L0 27.8192V33.9998L18.8671 21.6386Z" fill="#B3271B"/>
</g>
<defs>
<clipPath id="clip0">
<rect width="123" height="34" fill="white"/>
</clipPath>
</defs>
</svg>
